<?xml version="1.0" standalone="no"?>
<!DOCTYPE svg PUBLIC "-//W3C//DTD SVG 20010904//EN"
 "http://www.w3.org/TR/2001/REC-SVG-20010904/DTD/svg10.dtd">
<svg version="1.0" xmlns="http://www.w3.org/2000/svg"
 width="200.000000pt" height="200.000000pt" viewBox="0 0 200.000000 200.000000"
 preserveAspectRatio="xMidYMid meet">
<metadata>
Created by potrace 1.10, written by Peter Selinger 2001-2011
</metadata>
<g transform="translate(0.000000,200.000000) scale(0.100000,-0.100000)"
fill="#000000" stroke="none">
<path d="M1214 1305 c-8 -34 -50 -65 -86 -65 -18 0 -27 -4 -22 -11 3 -6 15 -9
25 -6 23 6 24 -7 3 -64 -37 -103 -9 -179 66 -179 43 0 70 24 70 63 0 21 -5 27
-20 27 -18 0 -20 -5 -18 -37 3 -35 1 -38 -22 -38 -53 0 -60 84 -16 190 13 29
20 35 45 35 17 0 31 5 31 10 0 6 -11 10 -25 10 -24 0 -24 0 -10 41 18 51 18
49 0 49 -8 0 -17 -11 -21 -25z"/>
<path d="M822 1234 c-31 -31 -32 -34 -11 -32 19 3 25 -5 39 -54 32 -105 34
-129 11 -135 -12 -3 -21 -10 -21 -15 0 -6 7 -7 16 -4 9 3 34 6 56 6 l40 0 -22
18 c-43 35 -37 179 8 197 32 12 54 -27 55 -101 2 -63 0 -69 -23 -81 l-25 -13
30 0 c17 0 43 -7 59 -15 37 -19 44 -13 17 14 -19 19 -20 29 -15 89 5 50 2 77
-9 105 -14 32 -20 37 -50 37 -37 0 -77 -33 -77 -64 0 -34 -18 -6 -24 39 -4 25
-10 44 -14 44 -4 -1 -22 -17 -40 -35z"/>
<path d="M280 1168 c-30 -33 -67 -67 -82 -76 -33 -19 -37 -36 -7 -27 14 5 29
0 46 -17 36 -32 163 -198 163 -211 0 -6 -12 -24 -27 -39 -37 -38 -18 -35 41 7
27 19 55 35 63 35 7 0 13 4 13 10 0 5 -10 9 -22 7 -17 -1 -33 14 -70 67 -32
47 -45 73 -38 80 7 7 20 0 41 -20 18 -16 30 -24 28 -19 -6 15 -71 125 -74 125
-1 0 -2 -16 -1 -36 0 -21 -3 -38 -9 -40 -10 -3 -75 95 -75 113 0 15 45 53 63
53 9 0 26 -18 38 -42 12 -24 24 -38 26 -32 6 18 -37 124 -50 123 -7 -1 -37
-28 -67 -61z"/>
<path d="M670 1200 c0 -6 -16 -18 -35 -27 -35 -17 -50 -41 -17 -28 9 4 23 9
30 12 30 12 57 -128 30 -155 -32 -32 -75 4 -124 104 l-27 56 -15 -28 c-8 -16
-24 -37 -36 -46 -18 -15 -18 -18 -4 -18 9 0 20 5 23 10 10 16 23 3 50 -50 24
-48 66 -90 91 -90 7 0 25 11 41 24 23 20 28 32 27 67 -2 43 -1 43 13 16 16
-32 21 -32 68 -10 33 16 51 42 20 29 -8 -3 -22 -9 -30 -12 -12 -5 -25 13 -52
75 -34 73 -53 99 -53 71z"/>
<path d="M1374 1175 c-111 -46 -77 -205 44 -205 83 0 133 130 72 185 -28 25
-82 34 -116 20z m94 -38 c11 -23 11 -36 -3 -82 -17 -61 -42 -83 -75 -65 -39
21 -38 104 1 155 27 33 59 30 77 -8z"/>
<path d="M1592 1059 c15 -8 15 -14 -3 -64 -32 -91 -23 -147 28 -166 18 -7 33
-5 54 5 16 8 29 12 29 9 0 -15 -95 -124 -124 -142 -42 -27 -88 -27 -111 -1
-15 17 -16 24 -7 45 14 31 30 32 34 3 4 -28 42 -37 52 -13 17 46 -52 76 -87
38 -42 -48 -6 -113 64 -113 56 0 176 101 254 214 23 34 46 56 57 56 29 0 21
18 -12 25 -16 3 -41 16 -55 27 -31 24 -46 16 -21 -11 15 -16 16 -23 6 -43 -37
-72 -106 -102 -130 -57 -9 16 -8 32 5 71 25 76 42 98 78 98 57 0 13 17 -57 23
-45 3 -64 2 -54 -4z"/>
</g>
</svg>
